<?xml version="1.0" encoding="UTF-8"?><svg id="Layer_1" xmlns="http://www.w3.org/2000/svg" viewBox="0 0 912 512"><rect id="pole" x="17.82" y="29.71" width="19.69" height="472.62" rx="4" ry="4" fill="#b8861b"/><circle id="finial" cx="27.66" cy="29.71" r="19.69" fill="#c8a030"/><polygon points="53.75 63.43 261.18 111.67 261.18 396.04 53.75 444.28 53.75 63.43" fill="#c1272d" stroke="#000" stroke-miterlimit="10"/><polygon points="261.18 111.67 509.31 169.37 509.31 338.34 261.18 396.04 261.18 111.67" fill="#1c2e52" stroke="#000" stroke-miterlimit="10"/><polygon points="509.31 169.37 872.58 253.86 509.31 338.34 509.31 169.37" fill="#c1272d" stroke="#000" stroke-miterlimit="10"/><polygon points="509.31 236.13 798.46 236.13 872.58 253.37 794.28 271.58 509.31 271.58 509.31 236.13" fill="#fff" stroke="#000" stroke-miterlimit="10"/><polygon points="53.75 63.43 872.58 253.37 53.75 444.28 53.75 63.43" fill="none" stroke="#1c2e52" stroke-miterlimit="10" stroke-width="15"/><path d="M301.95,280.03c0,10.07,2.41,12.9,9.22,12.9v2.41h-29.21v-2.41c5.67,0,9.22-1.84,9.22-12.62v-50.9c0-9.93-2.41-12.9-9.22-12.9v-2.41h29.63c22.4,0,31.48,11.91,31.48,23.11,0,13.47-10.21,20.98-28.64,20.98-3.54,0-6.52-.14-12.48-.85v22.69ZM301.95,253.66c3.69,1.28,5.81,1.42,10.07,1.42,12.05,0,19.71-6.52,19.71-17.58,0-8.65-4.82-20.28-19.71-20.28h-10.07v36.44Z" fill="#fff"/><path d="M388.29,280.03c0,9.78,1.98,12.9,8.93,12.9v2.41h-29.63v-2.41c6.24,0,9.92-1.28,9.92-12.9v-25.52l-17.3-26.94c-5.67-8.93-8.08-10.78-14.46-11.06v-2.41h31.76v2.41c-8.93,0-9.92,3.12-6.66,8.08l16.02,24.67,12.9-20.42c3.97-6.38,4.25-12.33-2.55-12.33v-2.41h22.26v2.41c-6.24.43-8.37,2.13-12.9,9.22l-18.29,28.78v25.52Z" fill="#fff"/><path d="M448.41,280.03c0,10.07,2.41,12.9,9.22,12.9v2.41h-29.21v-2.41c5.67,0,9.22-1.84,9.22-12.62v-50.9c0-9.93-2.41-12.9-9.22-12.9v-2.41h29.63c22.4,0,31.48,11.91,31.48,23.11,0,13.47-10.21,20.98-28.64,20.98-3.54,0-6.52-.14-12.48-.85v22.69ZM448.41,253.66c3.69,1.28,5.81,1.42,10.07,1.42,12.05,0,19.71-6.52,19.71-17.58,0-8.65-4.82-20.28-19.71-20.28h-10.07v36.44Z" fill="#fff"/><polygon id="gold-emblem" points="157.47 186.9 173.22 238.1 228.36 238.1 185.04 269.61 200.79 320.81 157.47 289.3 114.14 320.81 129.9 269.61 86.57 238.1 141.71 238.1 157.47 186.9" fill="#c8a030"/></svg>